<svg id="visual" viewBox="0 0 1920 1080" width="1920" height="1080" xmlns="http://www.w3.org/2000/svg" xmlns:xlink="http://www.w3.org/1999/xlink" version="1.1"><rect x="0" y="0" width="1920" height="1080" fill="#001220"></rect><defs><linearGradient id="grad1_0" x1="43.8%" y1="0%" x2="100%" y2="100%"><stop offset="14.444444444444446%" stop-color="#fbae3c" stop-opacity="1"></stop><stop offset="85.55555555555554%" stop-color="#fbae3c" stop-opacity="1"></stop></linearGradient></defs><defs><linearGradient id="grad1_1" x1="43.8%" y1="0%" x2="100%" y2="100%"><stop offset="14.444444444444446%" stop-color="#fbae3c" stop-opacity="1"></stop><stop offset="85.55555555555554%" stop-color="#e1685e" stop-opacity="1"></stop></linearGradient></defs><defs><linearGradient id="grad1_2" x1="43.8%" y1="0%" x2="100%" y2="100%"><stop offset="14.444444444444446%" stop-color="#96446e" stop-opacity="1"></stop><stop offset="85.55555555555554%" stop-color="#e1685e" stop-opacity="1"></stop></linearGradient></defs><defs><linearGradient id="grad1_3" x1="43.8%" y1="0%" x2="100%" y2="100%"><stop offset="14.444444444444446%" stop-color="#96446e" stop-opacity="1"></stop><stop offset="85.55555555555554%" stop-color="#3d3056" stop-opacity="1"></stop></linearGradient></defs><defs><linearGradient id="grad1_4" x1="43.8%" y1="0%" x2="100%" y2="100%"><stop offset="14.444444444444446%" stop-color="#001220" stop-opacity="1"></stop><stop offset="85.55555555555554%" stop-color="#3d3056" stop-opacity="1"></stop></linearGradient></defs><defs><linearGradient id="grad2_0" x1="0%" y1="0%" x2="56.3%" y2="100%"><stop offset="14.444444444444446%" stop-color="#fbae3c" stop-opacity="1"></stop><stop offset="85.55555555555554%" stop-color="#fbae3c" stop-opacity="1"></stop></linearGradient></defs><defs><linearGradient id="grad2_1" x1="0%" y1="0%" x2="56.3%" y2="100%"><stop offset="14.444444444444446%" stop-color="#e1685e" stop-opacity="1"></stop><stop offset="85.55555555555554%" stop-color="#fbae3c" stop-opacity="1"></stop></linearGradient></defs><defs><linearGradient id="grad2_2" x1="0%" y1="0%" x2="56.3%" y2="100%"><stop offset="14.444444444444446%" stop-color="#e1685e" stop-opacity="1"></stop><stop offset="85.55555555555554%" stop-color="#96446e" stop-opacity="1"></stop></linearGradient></defs><defs><linearGradient id="grad2_3" x1="0%" y1="0%" x2="56.3%" y2="100%"><stop offset="14.444444444444446%" stop-color="#3d3056" stop-opacity="1"></stop><stop offset="85.55555555555554%" stop-color="#96446e" stop-opacity="1"></stop></linearGradient></defs><defs><linearGradient id="grad2_4" x1="0%" y1="0%" x2="56.3%" y2="100%"><stop offset="14.444444444444446%" stop-color="#3d3056" stop-opacity="1"></stop><stop offset="85.55555555555554%" stop-color="#001220" stop-opacity="1"></stop></linearGradient></defs><g transform="translate(1920, 0)"><path d="M0 702C-47.7 703.5 -95.4 705.1 -137 688.5C-178.5 672 -213.9 637.3 -256.8 619.9C-299.7 602.5 -350 602.4 -388.9 582C-427.8 561.7 -455.3 521.1 -485.8 485.8C-516.3 450.4 -549.7 420.3 -573.7 383.3C-597.7 346.4 -612.3 302.7 -629.2 260.6C-646 218.5 -665.2 178 -677.7 134.8C-690.2 91.6 -696.1 45.8 -702 0L0 0Z" fill="#18223c"></path><path d="M0 561.6C-38.2 562.8 -76.3 564.1 -109.6 550.8C-142.8 537.6 -171.1 509.9 -205.4 495.9C-239.7 482 -280 481.9 -311.1 465.6C-342.3 449.3 -364.2 416.9 -388.6 388.6C-413 360.3 -439.8 336.2 -459 306.7C-478.2 277.1 -489.8 242.2 -503.3 208.5C-516.8 174.8 -532.2 142.4 -542.2 107.8C-552.2 73.3 -556.9 36.7 -561.6 0L0 0Z" fill="#683a67"></path><path d="M0 421.2C-28.6 422.1 -57.2 423 -82.2 413.1C-107.1 403.2 -128.3 382.4 -154.1 372C-179.8 361.5 -210 361.4 -233.3 349.2C-256.7 337 -273.2 312.7 -291.5 291.5C-309.8 270.3 -329.8 252.2 -344.2 230C-358.6 207.8 -367.4 181.6 -377.5 156.4C-387.6 131.1 -399.1 106.8 -406.6 80.9C-414.1 55 -417.7 27.5 -421.2 0L0 0Z" fill="#c0526a"></path><path d="M0 280.8C-19.1 281.4 -38.2 282 -54.8 275.4C-71.4 268.8 -85.6 254.9 -102.7 248C-119.9 241 -140 241 -155.6 232.8C-171.1 224.7 -182.1 208.5 -194.3 194.3C-206.5 180.2 -219.9 168.1 -229.5 153.3C-239.1 138.6 -244.9 121.1 -251.7 104.2C-258.4 87.4 -266.1 71.2 -271.1 53.9C-276.1 36.7 -278.4 18.3 -280.8 0L0 0Z" fill="#f6884d"></path><path d="M0 140.4C-9.5 140.7 -19.1 141 -27.4 137.7C-35.7 134.4 -42.8 127.5 -51.4 124C-59.9 120.5 -70 120.5 -77.8 116.4C-85.6 112.3 -91.1 104.2 -97.2 97.2C-103.3 90.1 -109.9 84.1 -114.7 76.7C-119.5 69.3 -122.5 60.5 -125.8 52.1C-129.2 43.7 -133 35.6 -135.5 27C-138 18.3 -139.2 9.2 -140.4 0L0 0Z" fill="#fbae3c"></path></g><g transform="translate(0, 1080)"><path d="M0 -702C39.7 -664.8 79.5 -627.6 123.1 -618.9C166.7 -610.2 214.3 -629.9 260.6 -629.2C306.9 -628.4 352 -607.2 381.7 -571.2C411.4 -535.3 425.7 -484.6 446.2 -446.2C466.7 -407.7 493.5 -381.5 533 -356.1C572.5 -330.7 624.8 -306.2 648.6 -268.6C672.4 -231.1 667.7 -180.6 671.8 -133.6C676 -86.7 689 -43.3 702 0L0 0Z" fill="#18223c"></path><path d="M0 -561.6C31.8 -531.8 63.6 -502.1 98.5 -495.1C133.4 -488.1 171.4 -503.9 208.5 -503.3C245.5 -502.7 281.6 -485.7 305.3 -457C329.1 -428.2 340.5 -387.7 356.9 -356.9C373.4 -326.2 394.8 -305.2 426.4 -284.9C458 -264.6 499.8 -244.9 518.9 -214.9C537.9 -184.9 534.1 -144.5 537.5 -106.9C540.8 -69.4 551.2 -34.7 561.6 0L0 0Z" fill="#683a67"></path><path d="M0 -421.2C23.8 -398.9 47.7 -376.6 73.9 -371.3C100 -366.1 128.6 -377.9 156.4 -377.5C184.2 -377 211.2 -364.3 229 -342.7C246.8 -321.2 255.4 -290.8 267.7 -267.7C280 -244.6 296.1 -228.9 319.8 -213.7C343.5 -198.4 374.9 -183.7 389.1 -161.2C403.4 -138.7 400.6 -108.3 403.1 -80.2C405.6 -52 413.4 -26 421.2 0L0 0Z" fill="#c0526a"></path><path d="M0 -280.8C15.9 -265.9 31.8 -251 49.2 -247.6C66.7 -244.1 85.7 -252 104.2 -251.7C122.8 -251.4 140.8 -242.9 152.7 -228.5C164.5 -214.1 170.3 -193.8 178.5 -178.5C186.7 -163.1 197.4 -152.6 213.2 -142.4C229 -132.3 249.9 -122.5 259.4 -107.5C268.9 -92.4 267.1 -72.2 268.7 -53.5C270.4 -34.7 275.6 -17.3 280.8 0L0 0Z" fill="#f6884d"></path><path d="M0 -140.4C7.9 -133 15.9 -125.5 24.6 -123.8C33.3 -122 42.9 -126 52.1 -125.8C61.4 -125.7 70.4 -121.4 76.3 -114.2C82.3 -107.1 85.1 -96.9 89.2 -89.2C93.3 -81.5 98.7 -76.3 106.6 -71.2C114.5 -66.1 125 -61.2 129.7 -53.7C134.5 -46.2 133.5 -36.1 134.4 -26.7C135.2 -17.3 137.8 -8.7 140.4 0L0 0Z" fill="#fbae3c"></path></g></svg>