<svg id="visual" viewBox="0 0 900 600" width="900" height="600" xmlns="http://www.w3.org/2000/svg" xmlns:xlink="http://www.w3.org/1999/xlink" version="1.1"><path d="M0 413L21.5 404C43 395 86 377 128.8 373.2C171.7 369.3 214.3 379.7 257.2 392C300 404.3 343 418.7 385.8 419C428.7 419.3 471.3 405.7 514.2 399C557 392.3 600 392.7 642.8 394.3C685.7 396 728.3 399 771.2 399.2C814 399.3 857 396.7 878.5 395.3L900 394L900 601L878.5 601C857 601 814 601 771.2 601C728.3 601 685.7 601 642.8 601C600 601 557 601 514.2 601C471.3 601 428.7 601 385.8 601C343 601 300 601 257.2 601C214.3 601 171.7 601 128.8 601C86 601 43 601 21.5 601L0 601Z" fill="#fcaf3c"></path><path d="M0 410L21.5 416C43 422 86 434 128.8 442.5C171.7 451 214.3 456 257.2 460.3C300 464.7 343 468.3 385.8 461.2C428.7 454 471.3 436 514.2 432.5C557 429 600 440 642.8 443.8C685.7 447.7 728.3 444.3 771.2 436.5C814 428.7 857 416.3 878.5 410.2L900 404L900 601L878.5 601C857 601 814 601 771.2 601C728.3 601 685.7 601 642.8 601C600 601 557 601 514.2 601C471.3 601 428.7 601 385.8 601C343 601 300 601 257.2 601C214.3 601 171.7 601 128.8 601C86 601 43 601 21.5 601L0 601Z" fill="#fc8a40"></path><path d="M0 444L21.5 449.7C43 455.3 86 466.7 128.8 471C171.7 475.3 214.3 472.7 257.2 472.5C300 472.3 343 474.7 385.8 481.3C428.7 488 471.3 499 514.2 495.7C557 492.3 600 474.7 642.8 466C685.7 457.3 728.3 457.7 771.2 465C814 472.3 857 486.7 878.5 493.8L900 501L900 601L878.5 601C857 601 814 601 771.2 601C728.3 601 685.7 601 642.8 601C600 601 557 601 514.2 601C471.3 601 428.7 601 385.8 601C343 601 300 601 257.2 601C214.3 601 171.7 601 128.8 601C86 601 43 601 21.5 601L0 601Z" fill="#f3664c"></path><path d="M0 514L21.5 510.3C43 506.7 86 499.3 128.8 499.7C171.7 500 214.3 508 257.2 509.3C300 510.7 343 505.3 385.8 502C428.7 498.7 471.3 497.3 514.2 499C557 500.7 600 505.3 642.8 505.2C685.7 505 728.3 500 771.2 499.5C814 499 857 503 878.5 505L900 507L900 601L878.5 601C857 601 814 601 771.2 601C728.3 601 685.7 601 642.8 601C600 601 557 601 514.2 601C471.3 601 428.7 601 385.8 601C343 601 300 601 257.2 601C214.3 601 171.7 601 128.8 601C86 601 43 601 21.5 601L0 601Z" fill="#e1435a"></path><path d="M0 530L21.5 535.2C43 540.3 86 550.7 128.8 555.3C171.7 560 214.3 559 257.2 558.3C300 557.7 343 557.3 385.8 555.7C428.7 554 471.3 551 514.2 548.7C557 546.3 600 544.7 642.8 548.3C685.7 552 728.3 561 771.2 560C814 559 857 548 878.5 542.5L900 537L900 601L878.5 601C857 601 814 601 771.2 601C728.3 601 685.7 601 642.8 601C600 601 557 601 514.2 601C471.3 601 428.7 601 385.8 601C343 601 300 601 257.2 601C214.3 601 171.7 601 128.8 601C86 601 43 601 21.5 601L0 601Z" fill="#c62368"></path></svg>