<svg id="visual" viewBox="0 0 900 600" width="900" height="600" xmlns="http://www.w3.org/2000/svg" xmlns:xlink="http://www.w3.org/1999/xlink" version="1.1"><path d="M0 396L21.5 391.8C43 387.7 86 379.3 128.8 397.7C171.7 416 214.3 461 257.2 469.5C300 478 343 450 385.8 432.7C428.7 415.3 471.3 408.7 514.2 422C557 435.3 600 468.7 642.8 468.3C685.7 468 728.3 434 771.2 417.8C814 401.7 857 403.3 878.5 404.2L900 405L900 601L878.5 601C857 601 814 601 771.2 601C728.3 601 685.7 601 642.8 601C600 601 557 601 514.2 601C471.3 601 428.7 601 385.8 601C343 601 300 601 257.2 601C214.3 601 171.7 601 128.8 601C86 601 43 601 21.5 601L0 601Z" fill="#c62368"></path><path d="M0 444L21.5 442.2C43 440.3 86 436.7 128.8 446.2C171.7 455.7 214.3 478.3 257.2 483.7C300 489 343 477 385.8 465.7C428.7 454.3 471.3 443.7 514.2 435.2C557 426.7 600 420.3 642.8 419.8C685.7 419.3 728.3 424.7 771.2 436.5C814 448.3 857 466.7 878.5 475.8L900 485L900 601L878.5 601C857 601 814 601 771.2 601C728.3 601 685.7 601 642.8 601C600 601 557 601 514.2 601C471.3 601 428.7 601 385.8 601C343 601 300 601 257.2 601C214.3 601 171.7 601 128.8 601C86 601 43 601 21.5 601L0 601Z" fill="#d82c5c"></path><path d="M0 505L21.5 508.2C43 511.3 86 517.7 128.8 514.2C171.7 510.7 214.3 497.3 257.2 493.2C300 489 343 494 385.8 502.5C428.7 511 471.3 523 514.2 518.8C557 514.7 600 494.3 642.8 488.2C685.7 482 728.3 490 771.2 484.2C814 478.3 857 458.7 878.5 448.8L900 439L900 601L878.5 601C857 601 814 601 771.2 601C728.3 601 685.7 601 642.8 601C600 601 557 601 514.2 601C471.3 601 428.7 601 385.8 601C343 601 300 601 257.2 601C214.3 601 171.7 601 128.8 601C86 601 43 601 21.5 601L0 601Z" fill="#e63a4f"></path><path d="M0 524L21.5 526.7C43 529.3 86 534.7 128.8 536.3C171.7 538 214.3 536 257.2 524.7C300 513.3 343 492.7 385.8 484C428.7 475.3 471.3 478.7 514.2 486.7C557 494.7 600 507.3 642.8 507.2C685.7 507 728.3 494 771.2 492C814 490 857 499 878.5 503.5L900 508L900 601L878.5 601C857 601 814 601 771.2 601C728.3 601 685.7 601 642.8 601C600 601 557 601 514.2 601C471.3 601 428.7 601 385.8 601C343 601 300 601 257.2 601C214.3 601 171.7 601 128.8 601C86 601 43 601 21.5 601L0 601Z" fill="#f04d3f"></path><path d="M0 551L21.5 547C43 543 86 535 128.8 531.5C171.7 528 214.3 529 257.2 535C300 541 343 552 385.8 555.2C428.7 558.3 471.3 553.7 514.2 552.8C557 552 600 555 642.8 549.8C685.7 544.7 728.3 531.3 771.2 530.5C814 529.7 857 541.3 878.5 547.2L900 553L900 601L878.5 601C857 601 814 601 771.2 601C728.3 601 685.7 601 642.8 601C600 601 557 601 514.2 601C471.3 601 428.7 601 385.8 601C343 601 300 601 257.2 601C214.3 601 171.7 601 128.8 601C86 601 43 601 21.5 601L0 601Z" fill="#f6612c"></path><path d="M0 572L21.5 572.7C43 573.3 86 574.7 128.8 570.7C171.7 566.7 214.3 557.3 257.2 556.2C300 555 343 562 385.8 564.8C428.7 567.7 471.3 566.3 514.2 565.7C557 565 600 565 642.8 564.2C685.7 563.3 728.3 561.7 771.2 556.7C814 551.7 857 543.3 878.5 539.2L900 535L900 601L878.5 601C857 601 814 601 771.2 601C728.3 601 685.7 601 642.8 601C600 601 557 601 514.2 601C471.3 601 428.7 601 385.8 601C343 601 300 601 257.2 601C214.3 601 171.7 601 128.8 601C86 601 43 601 21.5 601L0 601Z" fill="#f7770f"></path></svg>